<mxfile host="app.diagrams.net" modified="2024-03-08T15:57:48.660Z" agent="Mozilla/5.0 (Windows NT 10.0; Win64; x64) AppleWebKit/537.36 (KHTML, like Gecko) Chrome/122.0.0.0 Safari/537.36 Edg/122.0.0.0" etag="v1KXA0iJNjhQht0ZCHrW" version="23.1.5" type="github">
  <diagram name="Page-1" id="hj8KTSWtCMb48Kfoo2S6">
    <mxGraphModel dx="1339" dy="785" grid="1" gridSize="10" guides="1" tooltips="1" connect="1" arrows="1" fold="1" page="1" pageScale="1" pageWidth="850" pageHeight="1100" math="0" shadow="0">
      <root>
        <mxCell id="0" />
        <mxCell id="1" parent="0" />
        <mxCell id="QwpDfmqYIWqvYyOxzWCi-27" style="edgeStyle=orthogonalEdgeStyle;rounded=0;orthogonalLoop=1;jettySize=auto;html=1;entryX=0;entryY=0.5;entryDx=0;entryDy=0;shadow=1;strokeWidth=2;" edge="1" parent="1" source="QwpDfmqYIWqvYyOxzWCi-22" target="QwpDfmqYIWqvYyOxzWCi-23">
          <mxGeometry relative="1" as="geometry" />
        </mxCell>
        <mxCell id="QwpDfmqYIWqvYyOxzWCi-22" value="Game Start" style="rounded=0;whiteSpace=wrap;html=1;shadow=1;fillColor=#dae8fc;strokeColor=#6c8ebf;" vertex="1" parent="1">
          <mxGeometry x="190" y="50" width="120" height="60" as="geometry" />
        </mxCell>
        <mxCell id="QwpDfmqYIWqvYyOxzWCi-28" style="edgeStyle=orthogonalEdgeStyle;rounded=0;orthogonalLoop=1;jettySize=auto;html=1;entryX=0;entryY=0.5;entryDx=0;entryDy=0;shadow=1;strokeWidth=2;" edge="1" parent="1" source="QwpDfmqYIWqvYyOxzWCi-23" target="QwpDfmqYIWqvYyOxzWCi-24">
          <mxGeometry relative="1" as="geometry" />
        </mxCell>
        <mxCell id="QwpDfmqYIWqvYyOxzWCi-23" value="Title Screen" style="rounded=0;whiteSpace=wrap;html=1;shadow=1;fillColor=#d5e8d4;strokeColor=#82b366;" vertex="1" parent="1">
          <mxGeometry x="350" y="50" width="120" height="60" as="geometry" />
        </mxCell>
        <mxCell id="QwpDfmqYIWqvYyOxzWCi-33" style="edgeStyle=orthogonalEdgeStyle;rounded=0;orthogonalLoop=1;jettySize=auto;html=1;entryX=0.5;entryY=0;entryDx=0;entryDy=0;shadow=1;strokeWidth=2;" edge="1" parent="1" source="QwpDfmqYIWqvYyOxzWCi-24" target="QwpDfmqYIWqvYyOxzWCi-32">
          <mxGeometry relative="1" as="geometry" />
        </mxCell>
        <mxCell id="QwpDfmqYIWqvYyOxzWCi-24" value="Start Level" style="rounded=0;whiteSpace=wrap;html=1;shadow=1;fillColor=#e1d5e7;strokeColor=#9673a6;" vertex="1" parent="1">
          <mxGeometry x="530" y="50" width="120" height="60" as="geometry" />
        </mxCell>
        <mxCell id="QwpDfmqYIWqvYyOxzWCi-35" style="edgeStyle=orthogonalEdgeStyle;rounded=0;orthogonalLoop=1;jettySize=auto;html=1;entryX=0.5;entryY=0;entryDx=0;entryDy=0;strokeWidth=2;" edge="1" parent="1" source="QwpDfmqYIWqvYyOxzWCi-32" target="QwpDfmqYIWqvYyOxzWCi-34">
          <mxGeometry relative="1" as="geometry" />
        </mxCell>
        <mxCell id="QwpDfmqYIWqvYyOxzWCi-32" value="Game Play" style="rounded=0;whiteSpace=wrap;html=1;shadow=1;fillColor=#1ba1e2;strokeColor=#006EAF;fontColor=#ffffff;" vertex="1" parent="1">
          <mxGeometry x="530" y="150" width="120" height="60" as="geometry" />
        </mxCell>
        <mxCell id="QwpDfmqYIWqvYyOxzWCi-40" value="YES" style="edgeStyle=orthogonalEdgeStyle;rounded=0;orthogonalLoop=1;jettySize=auto;html=1;entryX=1;entryY=0.5;entryDx=0;entryDy=0;shadow=1;strokeWidth=2;" edge="1" parent="1" source="QwpDfmqYIWqvYyOxzWCi-34" target="QwpDfmqYIWqvYyOxzWCi-39">
          <mxGeometry relative="1" as="geometry" />
        </mxCell>
        <mxCell id="QwpDfmqYIWqvYyOxzWCi-34" value="Completed&amp;nbsp;&lt;br&gt;Objectives" style="rhombus;whiteSpace=wrap;html=1;shadow=1;fillColor=#ffcccc;strokeColor=#36393d;" vertex="1" parent="1">
          <mxGeometry x="537.5" y="250" width="105" height="100" as="geometry" />
        </mxCell>
        <mxCell id="QwpDfmqYIWqvYyOxzWCi-36" style="edgeStyle=orthogonalEdgeStyle;rounded=0;orthogonalLoop=1;jettySize=auto;html=1;entryX=0.992;entryY=0.383;entryDx=0;entryDy=0;entryPerimeter=0;shadow=1;strokeWidth=2;" edge="1" parent="1" source="QwpDfmqYIWqvYyOxzWCi-34" target="QwpDfmqYIWqvYyOxzWCi-32">
          <mxGeometry relative="1" as="geometry">
            <Array as="points">
              <mxPoint x="670" y="300" />
              <mxPoint x="670" y="173" />
            </Array>
          </mxGeometry>
        </mxCell>
        <mxCell id="QwpDfmqYIWqvYyOxzWCi-37" value="NO" style="edgeLabel;html=1;align=center;verticalAlign=middle;resizable=0;points=[];" vertex="1" connectable="0" parent="QwpDfmqYIWqvYyOxzWCi-36">
          <mxGeometry x="0.1" y="-3" relative="1" as="geometry">
            <mxPoint y="1" as="offset" />
          </mxGeometry>
        </mxCell>
        <mxCell id="QwpDfmqYIWqvYyOxzWCi-44" value="NO" style="edgeStyle=orthogonalEdgeStyle;rounded=0;orthogonalLoop=1;jettySize=auto;html=1;strokeWidth=2;" edge="1" parent="1" source="QwpDfmqYIWqvYyOxzWCi-39" target="QwpDfmqYIWqvYyOxzWCi-42">
          <mxGeometry relative="1" as="geometry" />
        </mxCell>
        <mxCell id="QwpDfmqYIWqvYyOxzWCi-46" style="edgeStyle=orthogonalEdgeStyle;rounded=0;orthogonalLoop=1;jettySize=auto;html=1;entryX=1;entryY=0.5;entryDx=0;entryDy=0;strokeWidth=2;shadow=1;" edge="1" parent="1" source="QwpDfmqYIWqvYyOxzWCi-39" target="QwpDfmqYIWqvYyOxzWCi-45">
          <mxGeometry relative="1" as="geometry" />
        </mxCell>
        <mxCell id="QwpDfmqYIWqvYyOxzWCi-39" value="Is Final&lt;br&gt;Level?" style="rhombus;whiteSpace=wrap;html=1;shadow=1;fillColor=#f8cecc;strokeColor=#b85450;" vertex="1" parent="1">
          <mxGeometry x="370" y="260" width="80" height="80" as="geometry" />
        </mxCell>
        <mxCell id="QwpDfmqYIWqvYyOxzWCi-43" style="edgeStyle=orthogonalEdgeStyle;rounded=0;orthogonalLoop=1;jettySize=auto;html=1;entryX=0;entryY=0.5;entryDx=0;entryDy=0;shadow=1;strokeWidth=2;" edge="1" parent="1" source="QwpDfmqYIWqvYyOxzWCi-42" target="QwpDfmqYIWqvYyOxzWCi-32">
          <mxGeometry relative="1" as="geometry" />
        </mxCell>
        <mxCell id="QwpDfmqYIWqvYyOxzWCi-42" value="Start Next&amp;nbsp;&lt;br&gt;Level" style="rounded=0;whiteSpace=wrap;html=1;shadow=1;fillColor=#e1d5e7;strokeColor=#9673a6;" vertex="1" parent="1">
          <mxGeometry x="350" y="150" width="120" height="60" as="geometry" />
        </mxCell>
        <mxCell id="QwpDfmqYIWqvYyOxzWCi-45" value="Game End" style="rounded=0;whiteSpace=wrap;html=1;shadow=1;fillColor=#fa6800;fontColor=#000000;strokeColor=#C73500;" vertex="1" parent="1">
          <mxGeometry x="190" y="270" width="120" height="60" as="geometry" />
        </mxCell>
      </root>
    </mxGraphModel>
  </diagram>
</mxfile>
